<svg width="21" height="12" viewBox="0 0 21 12" fill="none" xmlns="http://www.w3.org/2000/svg">
<path d="M0 0.939474C0 0.69031 0.138281 0.451351 0.384422 0.275165C0.630564 0.0989799 0.964403 0 1.3125 0H19.6875C20.0356 0 20.3694 0.0989799 20.6156 0.275165C20.8617 0.451351 21 0.69031 21 0.939474C21 1.18864 20.8617 1.4276 20.6156 1.60378C20.3694 1.77997 20.0356 1.87895 19.6875 1.87895H1.3125C0.964403 1.87895 0.630564 1.77997 0.384422 1.60378C0.138281 1.4276 0 1.18864 0 0.939474Z" fill="black" fill-opacity="0.5"/>
<path d="M0 5.95119C0 5.70203 0.103711 5.46307 0.288317 5.28688C0.472923 5.1107 0.723303 5.01172 0.984375 5.01172H20.0156C20.2767 5.01172 20.5271 5.1107 20.7117 5.28688C20.8963 5.46307 21 5.70203 21 5.95119C21 6.20036 20.8963 6.43931 20.7117 6.6155C20.5271 6.79169 20.2767 6.89067 20.0156 6.89067H0.984375C0.723303 6.89067 0.472923 6.79169 0.288317 6.6155C0.103711 6.43931 0 6.20036 0 5.95119Z" fill="black" fill-opacity="0.5"/>
<path d="M0.901515 10.0215C0.662418 10.0215 0.433115 10.1205 0.264048 10.2967C0.0949812 10.4728 0 10.7118 0 10.961C0 11.2101 0.0949812 11.4491 0.264048 11.6253C0.433115 11.8015 0.662418 11.9004 0.901515 11.9004H9.91667C10.1558 11.9004 10.3851 11.8015 10.5541 11.6253C10.7232 11.4491 10.8182 11.2101 10.8182 10.961C10.8182 10.7118 10.7232 10.4728 10.5541 10.2967C10.3851 10.1205 10.1558 10.0215 9.91667 10.0215H0.901515Z" fill="black" fill-opacity="0.5"/>
</svg>
