<svg width="23" height="15" viewBox="0 0 23 15" fill="none" xmlns="http://www.w3.org/2000/svg">
<path d="M22.3474 7.17296C20.0071 2.84657 15.9029 0.228516 11.3612 0.228516C6.81958 0.228516 2.70847 2.84657 0.389024 7.17296L0.19458 7.49935L0.375136 7.83268C2.71541 12.1591 6.81958 14.7771 11.3612 14.7771C15.9029 14.7771 20.014 12.1938 22.3474 7.83268L22.5279 7.49935L22.3474 7.17296ZM11.3612 13.3535C7.45152 13.3535 3.86125 11.173 1.77791 7.49935C3.86125 3.82574 7.45152 1.64518 11.3612 1.64518C15.271 1.64518 18.8196 3.83268 20.9376 7.49935C18.8196 11.173 15.264 13.3535 11.3612 13.3535Z" fill="black" fill-opacity="0.5"/>
<path d="M11.5626 2.75794C10.621 2.76481 9.7026 3.05056 8.92333 3.57911C8.14405 4.10765 7.53889 4.85527 7.18426 5.72755C6.82964 6.59983 6.74147 7.55764 6.93088 8.48C7.12029 9.40236 7.57879 10.2479 8.24848 10.9098C8.91816 11.5718 9.76899 12.0204 10.6935 12.1991C11.618 12.3777 12.5747 12.2784 13.4428 11.9136C14.3109 11.5489 15.0514 10.935 15.5708 10.1497C16.0903 9.36429 16.3653 8.44259 16.3612 7.50099C16.3585 6.87421 16.2321 6.25413 15.9893 5.67628C15.7465 5.09844 15.3921 4.57418 14.9463 4.13357C14.5005 3.69295 13.9722 3.34463 13.3915 3.10858C12.8109 2.87252 12.1894 2.75337 11.5626 2.75794ZM11.5626 10.8968C10.8975 10.89 10.2493 10.6867 9.6993 10.3127C9.14932 9.93859 8.72214 9.41035 8.4714 8.79429C8.22066 8.17822 8.15755 7.5018 8.28999 6.84999C8.42243 6.19817 8.74452 5.60002 9.2158 5.13066C9.68708 4.66129 10.2865 4.34165 10.9389 4.21187C11.5912 4.0821 12.2674 4.14797 12.8824 4.40122C13.4975 4.65447 14.024 5.0838 14.3958 5.6353C14.7676 6.1868 14.9682 6.83587 14.9723 7.50099C14.9742 7.94863 14.8872 8.39218 14.7163 8.80593C14.5454 9.21968 14.2941 9.59538 13.9769 9.91127C13.6598 10.2272 13.283 10.4769 12.8686 10.6461C12.4541 10.8153 12.0102 10.9005 11.5626 10.8968Z" fill="black" fill-opacity="0.5"/>
</svg>
