<svg width="41" height="41" viewBox="0 0 41 41" fill="none" xmlns="http://www.w3.org/2000/svg">
<path d="M20.4998 13.3327C16.5403 13.3327 13.3332 16.5398 13.3332 20.4993C13.3332 24.4589 16.5403 27.666 20.4998 27.666C24.4594 27.666 27.6665 24.4589 27.6665 20.4993C27.6665 16.5398 24.4594 13.3327 20.4998 13.3327ZM36.5173 18.7077C36.1115 15.0744 34.4823 11.6871 31.8972 9.10201C29.3121 6.51691 25.9248 4.88768 22.2915 4.48185V0.791016H18.7082V4.48185C15.0749 4.88768 11.6876 6.51691 9.1025 9.10201C6.5174 11.6871 4.88817 15.0744 4.48234 18.7077H0.791504V22.291H4.48234C4.88817 25.9243 6.5174 29.3116 9.1025 31.8967C11.6876 34.4818 15.0749 36.111 18.7082 36.5168V40.2077H22.2915V36.5168C25.9248 36.111 29.3121 34.4818 31.8972 31.8967C34.4823 29.3116 36.1115 25.9243 36.5173 22.291H40.2082V18.7077H36.5173ZM20.4998 33.041C13.5661 33.041 7.95817 27.4331 7.95817 20.4993C7.95817 13.5656 13.5661 7.95768 20.4998 7.95768C27.4336 7.95768 33.0415 13.5656 33.0415 20.4993C33.0415 27.4331 27.4336 33.041 20.4998 33.041Z" fill="black"/>
</svg>
