<svg width="43" height="33" viewBox="0 0 43 33" fill="none" xmlns="http://www.w3.org/2000/svg">
<path d="M19.9167 17.6143L4.23779 5.42363L2.97559 4.44141L4.24238 5.42822V29.3505H38.758V5.42822L23.0699 17.6143C22.619 17.9646 22.0643 18.1547 21.4933 18.1547C20.9223 18.1547 20.3676 17.9646 19.9167 17.6143Z" fill="black" fill-opacity="0.15"/>
<path d="M38.2212 2.12305L40.025 4.44092L38.7582 5.42773L40.0296 4.44092L38.2258 2.12305H38.2212Z" fill="black" fill-opacity="0.15"/>
<path d="M40.5938 0.34375H2.40625C1.59385 0.34375 0.9375 1.0001 0.9375 1.8125V31.1875C0.9375 31.9999 1.59385 32.6562 2.40625 32.6562H40.5938C41.4062 32.6562 42.0625 31.9999 42.0625 31.1875V1.8125C42.0625 1.0001 41.4062 0.34375 40.5938 0.34375ZM36.2563 3.65303L21.5 15.123L6.74365 3.65303H36.2563ZM38.7578 5.4293V29.3516H4.24219V5.4293L2.97539 4.44248L4.2376 5.42471L19.9165 17.6153C20.3674 17.9656 20.9221 18.1558 21.4931 18.1558C22.0641 18.1558 22.6188 17.9656 23.0697 17.6153L38.7578 5.4293L40.0246 4.44248L38.2208 2.12461H38.2254L40.0292 4.44248L38.7578 5.4293Z" fill="black"/>
</svg>
