<?xml version="1.0" encoding="UTF-8"?>
<svg viewBox="0 0 465 190" xmlns="http://www.w3.org/2000/svg">
<path d="m134.57 182.39c-8.757 0-15.607-7.11-15.607-16.041 0-9.017 6.85-16.04 15.607-16.04 4.422 0 9.017 2.167 12.139 5.809l4.335-5.636c-4.248-4.335-10.405-7.023-16.647-7.023-12.919 0-22.977 9.971-22.977 22.89 0 13.093 9.971 23.151 22.717 23.151 6.156 0 12.485-2.948 16.907-7.457l-4.335-5.116c-3.295 3.382-7.804 5.463-12.139 5.463z" fill="#1D1D1B"/>
<path d="m179.74 143.72-19.335 45.52h7.717l4.162-10.318h22.023l4.162 10.318h7.89l-19.075-45.52h-7.544zm-4.682 28.439 8.237-20.202 8.237 20.202h-16.474z" fill="#1D1D1B"/>
<path d="m243.29 173.98-14.479-30.26h-8.758v45.52h6.937v-33.988l13.873 29.219h4.769l13.786-29.219 0.086 33.988h6.763v-45.52h-8.67l-14.307 30.26z" fill="#1D1D1B"/>
<path d="m303.12 143.72h-17.428v45.52h7.37v-13.699h10.058c11.011 0 17.341-5.983 17.341-16.301 0-9.884-6.33-15.52-17.341-15.52zm-0.26 24.884h-9.711v-18.034h9.711c6.763 0 10.578 2.861 10.578 8.843-0.087 6.243-3.815 9.191-10.578 9.191z" fill="#1D1D1B"/>
<path d="m365.38 170.33c0 7.717-4.422 12.312-11.532 12.312-7.196 0-11.705-4.595-11.705-12.312v-26.705h-7.37v26.705c0 11.879 7.283 19.162 19.075 19.162s18.989-7.283 18.989-19.162v-26.705h-7.37v26.705h-0.087z" fill="#1D1D1B"/>
<path d="m397.89 155.33c0-3.034 2.774-4.768 7.11-4.768 3.294 0 8.063 1.214 12.832 4.248l3.035-6.763c-4.076-2.774-9.625-4.682-15.347-4.682-9.538 0-15.954 4.856-15.954 12.659 0 16.214 23.584 10.578 23.584 20.723 0 3.468-3.035 5.549-8.15 5.549-4.683 0-10.318-2.341-14.827-6.677l-3.208 6.677c4.509 4.248 11.011 7.196 17.861 7.196 9.624 0 16.474-5.029 16.474-13.179 0.174-16.387-23.41-11.011-23.41-20.983z" fill="#1D1D1B"/>
<path d="m295.66 115.28c31.648 0 57.399-25.578 57.399-57.138s-25.665-57.139-57.399-57.139-57.398 25.578-57.398 57.139 25.751 57.138 57.398 57.138zm0-86.965c16.561 0 30.087 13.353 30.087 29.913s-13.439 29.913-30.087 29.913c-16.56 0-30.086-13.353-30.086-29.913s13.526-29.913 30.086-29.913z" fill="#1D1D1B"/>
<path d="m111.85 115.28h27.312v-55.492c0-16.821 13.44-30.52 30.087-30.52 16.561 0 30.087 13.699 30.087 30.52v55.492h27.312v-55.492c0-32.168-25.665-58.266-57.399-58.266-31.647 0-57.399 26.098-57.399 58.266v55.492z" fill="#1D1D1B"/>
<path d="m49.942 60.564c0-3.815-0.6937-7.4566-1.9943-10.751l-18.468-48.208h-29.48l32.775 85.231c10.144-4.1618 17.168-14.22 17.168-26.272z" fill="#1D1D1B"/>
<path d="m421.39 115.28 43.613-113.76h-29.393l-43.613 113.76h29.393z" fill="#1D1D1B"/>
<path d="m398.24 60.478c0-3.815-0.693-7.4567-1.994-10.752l-18.468-48.208h-29.393l32.775 85.318c10.057-4.1619 17.08-14.306 17.08-26.358z" fill="#1D1D1B"/>
<path d="m87.312 1.5186-72.052 187.72h29.393l72.052-187.72h-29.393z" fill="#1D1D1B"/>
</svg>
