<svg width="141" height="68" viewBox="0 0 141 68" fill="none" xmlns="http://www.w3.org/2000/svg">
<rect width="141" height="68" fill="#3B877E"/>
<path d="M22.7 45V25.32H34.04V27.42H25.19V33.6H32.66V35.73H25.19V42.87H34.34V45H22.7ZM38.2803 45V30.42H40.3203L40.5303 32.52H40.6203C41.3203 31.82 42.0503 31.24 42.8103 30.78C43.5903 30.3 44.4903 30.06 45.5103 30.06C47.0503 30.06 48.1703 30.54 48.8703 31.5C49.5903 32.46 49.9503 33.88 49.9503 35.76V45H47.4903V36.09C47.4903 34.71 47.2703 33.72 46.8303 33.12C46.3903 32.5 45.6903 32.19 44.7303 32.19C43.9703 32.19 43.3003 32.38 42.7203 32.76C42.1403 33.14 41.4803 33.7 40.7403 34.44V45H38.2803ZM57.8366 45L52.5866 30.42H55.1366L57.8966 38.7C58.1166 39.42 58.3366 40.14 58.5566 40.86C58.7966 41.58 59.0266 42.29 59.2466 42.99H59.3666C59.5866 42.29 59.8066 41.58 60.0266 40.86C60.2466 40.14 60.4666 39.42 60.6866 38.7L63.4466 30.42H65.8766L60.7166 45H57.8366ZM74.2433 45.36C73.3433 45.36 72.4833 45.19 71.6633 44.85C70.8633 44.51 70.1533 44.02 69.5333 43.38C68.9133 42.72 68.4133 41.92 68.0333 40.98C67.6733 40.02 67.4933 38.94 67.4933 37.74C67.4933 36.52 67.6733 35.44 68.0333 34.5C68.4133 33.54 68.9133 32.73 69.5333 32.07C70.1533 31.41 70.8633 30.91 71.6633 30.57C72.4833 30.23 73.3433 30.06 74.2433 30.06C75.1433 30.06 75.9933 30.23 76.7933 30.57C77.6133 30.91 78.3333 31.41 78.9533 32.07C79.5733 32.73 80.0633 33.54 80.4233 34.5C80.8033 35.44 80.9933 36.52 80.9933 37.74C80.9933 38.94 80.8033 40.02 80.4233 40.98C80.0633 41.92 79.5733 42.72 78.9533 43.38C78.3333 44.02 77.6133 44.51 76.7933 44.85C75.9933 45.19 75.1433 45.36 74.2433 45.36ZM74.2433 43.32C74.8633 43.32 75.4333 43.19 75.9533 42.93C76.4733 42.65 76.9133 42.27 77.2733 41.79C77.6533 41.29 77.9433 40.7 78.1433 40.02C78.3433 39.34 78.4433 38.58 78.4433 37.74C78.4433 36.9 78.3433 36.14 78.1433 35.46C77.9433 34.76 77.6533 34.16 77.2733 33.66C76.9133 33.16 76.4733 32.78 75.9533 32.52C75.4333 32.24 74.8633 32.1 74.2433 32.1C73.6233 32.1 73.0533 32.24 72.5333 32.52C72.0133 32.78 71.5633 33.16 71.1833 33.66C70.8233 34.16 70.5433 34.76 70.3433 35.46C70.1433 36.14 70.0433 36.9 70.0433 37.74C70.0433 38.58 70.1433 39.34 70.3433 40.02C70.5433 40.7 70.8233 41.29 71.1833 41.79C71.5633 42.27 72.0133 42.65 72.5333 42.93C73.0533 43.19 73.6233 43.32 74.2433 43.32ZM84.9559 51.27C84.6159 51.27 84.3059 51.24 84.0259 51.18C83.7459 51.14 83.4859 51.07 83.2459 50.97L83.7259 49.02C83.8859 49.06 84.0659 49.1 84.2659 49.14C84.4659 49.2 84.6559 49.23 84.8359 49.23C85.6759 49.23 86.3559 48.93 86.8759 48.33C87.4159 47.75 87.8359 47.01 88.1359 46.11L88.4659 45.03L82.6159 30.42H85.1659L88.1359 38.49C88.3559 39.13 88.5859 39.81 88.8259 40.53C89.0859 41.23 89.3259 41.92 89.5459 42.6H89.6659C89.8859 41.94 90.0959 41.25 90.2959 40.53C90.4959 39.81 90.6959 39.13 90.8959 38.49L93.5059 30.42H95.9059L90.4159 46.2C90.1559 46.92 89.8659 47.59 89.5459 48.21C89.2259 48.83 88.8459 49.36 88.4059 49.8C87.9659 50.26 87.4659 50.62 86.9059 50.88C86.3459 51.14 85.6959 51.27 84.9559 51.27ZM104.513 45.36C103.533 45.36 102.613 45.19 101.753 44.85C100.913 44.49 100.173 43.99 99.5326 43.35C98.9126 42.69 98.4226 41.89 98.0626 40.95C97.7026 40.01 97.5226 38.94 97.5226 37.74C97.5226 36.54 97.7026 35.47 98.0626 34.53C98.4426 33.57 98.9326 32.76 99.5326 32.1C100.153 31.44 100.853 30.94 101.633 30.6C102.413 30.24 103.223 30.06 104.063 30.06C104.983 30.06 105.803 30.22 106.523 30.54C107.263 30.86 107.873 31.32 108.353 31.92C108.853 32.52 109.233 33.24 109.493 34.08C109.753 34.92 109.883 35.86 109.883 36.9C109.883 37.16 109.873 37.42 109.853 37.68C109.853 37.92 109.833 38.13 109.793 38.31H99.9526C100.053 39.87 100.533 41.11 101.393 42.03C102.273 42.93 103.413 43.38 104.813 43.38C105.513 43.38 106.153 43.28 106.733 43.08C107.333 42.86 107.903 42.58 108.443 42.24L109.313 43.86C108.673 44.26 107.963 44.61 107.183 44.91C106.403 45.21 105.513 45.36 104.513 45.36ZM99.9226 36.54H107.723C107.723 35.06 107.403 33.94 106.763 33.18C106.143 32.4 105.263 32.01 104.123 32.01C103.603 32.01 103.103 32.11 102.623 32.31C102.163 32.51 101.743 32.81 101.363 33.21C100.983 33.59 100.663 34.06 100.403 34.62C100.163 35.18 100.003 35.82 99.9226 36.54ZM113.485 45V30.42H115.525L115.735 33.06H115.825C116.325 32.14 116.925 31.41 117.625 30.87C118.345 30.33 119.125 30.06 119.965 30.06C120.545 30.06 121.065 30.16 121.525 30.36L121.045 32.52C120.805 32.44 120.585 32.38 120.385 32.34C120.185 32.3 119.935 32.28 119.635 32.28C119.015 32.28 118.365 32.53 117.685 33.03C117.025 33.53 116.445 34.4 115.945 35.64V45H113.485Z" fill="white"/>
</svg>
