<svg width="32" height="32" viewBox="0 0 32 32" fill="none" xmlns="http://www.w3.org/2000/svg">
<path d="M24.1914 3.22266L19.8633 7.55469L24.582 12.2695L24.2695 13.1133C23.3298 15.6719 21.845 17.9956 19.9179 19.9234C17.9909 21.8511 15.6677 23.3367 13.1094 24.2773L12.2656 24.5898L12.2305 24.5547L7.55078 19.8672L3.22266 24.1992L7.30469 28.2812C7.72656 28.6992 8.32031 28.8945 8.89844 28.7969C13.5039 28.0352 18.0937 25.5586 21.8242 21.8281C25.5547 18.0977 28.0312 13.5039 28.793 8.89844C28.8906 8.32031 28.6953 7.72656 28.2734 7.30469L24.1914 3.22266Z" fill="black" fill-opacity="0.15"/>
<path d="M30.2617 5.32422L26.1016 1.16797C25.5938 0.660156 24.9141 0.375 24.1953 0.375C23.4766 0.375 22.7969 0.65625 22.2891 1.16797L17.8086 5.64062C17.3008 6.14844 17.0156 6.83203 17.0156 7.55078C17.0156 8.27344 17.2969 8.94922 17.8086 9.46094L21.3086 12.9648C20.5113 14.8226 19.3656 16.5105 17.9336 17.9375C16.5 19.3789 14.8242 20.5156 12.9648 21.3203L9.46484 17.8164C8.95703 17.3086 8.27734 17.0234 7.55859 17.0234C7.20407 17.0221 6.85286 17.0916 6.52553 17.2278C6.1982 17.3639 5.90134 17.564 5.65234 17.8164L1.16797 22.2891C0.660156 22.7969 0.375 23.4805 0.375 24.1992C0.375 24.9219 0.65625 25.5977 1.16797 26.1094L5.32422 30.2656C6.19141 31.1328 7.38672 31.6289 8.61328 31.6289C8.86719 31.6289 9.11328 31.6094 9.36328 31.5664C14.5352 30.7148 19.668 27.9609 23.8125 23.8203C27.9531 19.6719 30.7031 14.5391 31.5625 9.36328C31.8086 7.89453 31.3164 6.38281 30.2617 5.32422ZM28.793 8.89844C28.0312 13.5039 25.5547 18.0977 21.8242 21.8281C18.0938 25.5586 13.5039 28.0352 8.89844 28.7969C8.32031 28.8945 7.72656 28.6992 7.30469 28.2812L3.22266 24.1992L7.55078 19.8672L12.2305 24.5547L12.2656 24.5898L13.1094 24.2773C15.6677 23.3367 17.9909 21.8511 19.9179 19.9234C21.845 17.9956 23.3298 15.6719 24.2695 13.1133L24.582 12.2695L19.8633 7.55469L24.1914 3.22266L28.2734 7.30469C28.6953 7.72656 28.8906 8.32031 28.793 8.89844Z" fill="black"/>
</svg>
