<svg width="465" height="190" viewBox="0 0 465 190" fill="none" xmlns="http://www.w3.org/2000/svg">
<path d="M134.566 182.386C125.809 182.386 118.959 175.276 118.959 166.345C118.959 157.328 125.809 150.305 134.566 150.305C138.988 150.305 143.583 152.472 146.705 156.114L151.04 150.478C146.792 146.143 140.635 143.455 134.393 143.455C121.474 143.455 111.416 153.426 111.416 166.345C111.416 179.438 121.387 189.496 134.133 189.496C140.289 189.496 146.618 186.548 151.04 182.039L146.705 176.923C143.41 180.305 138.901 182.386 134.566 182.386Z" fill="#1D1D1B"/>
<path d="M179.739 143.715L160.404 189.235H168.121L172.283 178.917H194.306L198.468 189.235H206.358L187.283 143.715H179.739ZM175.057 172.154L183.294 151.952L191.531 172.154H175.057Z" fill="#1D1D1B"/>
<path d="M243.294 173.975L228.815 143.715H220.057V189.235H226.994V155.247L240.867 184.466H245.636L259.422 155.247L259.508 189.235H266.271V143.715H257.601L243.294 173.975Z" fill="#1D1D1B"/>
<path d="M303.121 143.715H285.693V189.235H293.063V175.536H303.121C314.132 175.536 320.462 169.553 320.462 159.235C320.462 149.351 314.132 143.715 303.121 143.715ZM302.861 168.599H293.15V150.565H302.861C309.624 150.565 313.439 153.426 313.439 159.408C313.352 165.651 309.624 168.599 302.861 168.599Z" fill="#1D1D1B"/>
<path d="M365.375 170.333C365.375 178.05 360.953 182.645 353.843 182.645C346.647 182.645 342.138 178.05 342.138 170.333V143.628H334.768V170.333C334.768 182.212 342.051 189.495 353.843 189.495C365.635 189.495 372.832 182.212 372.832 170.333V143.628H365.462V170.333H365.375Z" fill="#1D1D1B"/>
<path d="M397.89 155.333C397.89 152.299 400.664 150.565 405 150.565C408.294 150.565 413.063 151.779 417.832 154.813L420.867 148.05C416.791 145.276 411.242 143.368 405.52 143.368C395.982 143.368 389.566 148.224 389.566 156.027C389.566 172.241 413.15 166.605 413.15 176.75C413.15 180.218 410.115 182.299 405 182.299C400.317 182.299 394.682 179.958 390.173 175.622L386.965 182.299C391.474 186.547 397.976 189.495 404.826 189.495C414.45 189.495 421.3 184.466 421.3 176.316C421.474 159.929 397.89 165.305 397.89 155.333Z" fill="#1D1D1B"/>
<path d="M295.664 115.275C327.312 115.275 353.063 89.6975 353.063 58.1368C353.063 26.5761 327.398 0.998047 295.664 0.998047C263.93 0.998047 238.266 26.5761 238.266 58.1368C238.266 89.6975 264.017 115.275 295.664 115.275ZM295.664 28.3102C312.225 28.3102 325.751 41.6628 325.751 58.2235C325.751 74.7842 312.312 88.1368 295.664 88.1368C279.104 88.1368 265.578 74.7842 265.578 58.2235C265.578 41.6628 279.104 28.3102 295.664 28.3102Z" fill="#1D1D1B"/>
<path d="M111.849 115.276H139.161V59.7844C139.161 42.9636 152.601 29.2642 169.248 29.2642C185.809 29.2642 199.335 42.9636 199.335 59.7844V115.276H226.647V59.7844C226.647 27.6168 200.982 1.51855 169.248 1.51855C137.601 1.51855 111.849 27.6168 111.849 59.7844V115.276Z" fill="#1D1D1B"/>
<path d="M49.9418 60.564C49.9418 56.749 49.2481 53.1074 47.9475 49.8126L29.4793 1.60449H-0.000427246L32.7741 86.8357C42.9186 82.6739 49.9418 72.6161 49.9418 60.564Z" fill="#1D1D1B"/>
<path d="M421.387 115.276L465 1.51855H435.607L391.994 115.276H421.387Z" fill="#1D1D1B"/>
<path d="M398.236 60.4781C398.236 56.6631 397.543 53.0214 396.242 49.7266L377.774 1.51855H348.381L381.156 86.8365C391.213 82.6746 398.236 72.5301 398.236 60.4781Z" fill="#1D1D1B"/>
<path d="M87.3118 1.51855L15.2598 189.235H44.6528L116.705 1.51855H87.3118Z" fill="#1D1D1B"/>
</svg>
